<svg version="1.1" xmlns="http://www.w3.org/2000/svg" viewBox="0 0 573.1772162268644 459.95185224570685" width="1146.3544324537288" height="919.9037044914137">
  <!-- svg-source:excalidraw -->
  
  <defs>
    <style class="style-fonts">
      @font-face {
        font-family: "Virgil";
        src: url("https://excalidraw.com/Virgil.woff2");
      }
      @font-face {
        font-family: "Cascadia";
        src: url("https://excalidraw.com/Cascadia.woff2");
      }
    </style>
  </defs>
  <rect x="0" y="0" width="573.1772162268644" height="459.95185224570685" fill="#ffffff"></rect><g stroke-linecap="round" transform="translate(10.000000000000057 10) rotate(0 177.3901621655767 161.63511486797614)"><path d="M29.26 71.81 C29.26 71.81, 29.26 71.81, 29.26 71.81 M29.26 71.81 C29.26 71.81, 29.26 71.81, 29.26 71.81 M23.97 85.47 C39.74 67.2, 52.29 49.2, 64.83 37.46 M22.55 86.57 C34.41 70.97, 47.06 58.93, 65.3 37.89 M16.36 97.73 C39.01 73.23, 61.38 45.84, 74.39 29.16 M16 98.8 C28.09 85.57, 40.7 72.3, 75.08 31.92 M8.5 112.6 C25.02 95.01, 40 73.8, 84.19 24.61 M9.78 113.53 C32.6 83.99, 57.69 55.48, 85.21 25.34 M10.41 118.21 C35.22 93.37, 54.16 65.54, 95.51 18.41 M11.01 117.25 C35.49 87.87, 61.43 59.75, 96.72 19.02 M9.29 126.57 C34.57 99.29, 57.78 70.49, 106.66 12.98 M9.96 125.04 C43.15 85.11, 79.25 46.04, 106.83 14.64 M7.58 132.61 C34.67 104.28, 61.97 74.29, 110.37 12.59 M8.59 132.64 C35.81 102.3, 62.71 72.16, 111.88 12.77 M6.67 140.64 C49.6 91.05, 93.14 40.34, 120.33 10.14 M5.66 140.94 C41.41 101.23, 75.62 61.31, 118.21 12.63 M5.5 148.12 C31.56 115.23, 58.11 84.94, 124.01 11.01 M3.88 148.81 C41.5 105.27, 78.4 64.75, 124.58 10.05 M5.91 155.21 C45.38 105.77, 90.26 59.98, 129.34 8.86 M4.68 156.65 C51.72 99.69, 101.04 42.28, 131.23 10.24 M0.25 164.86 C34.84 122.61, 71.82 84.65, 137.38 7.99 M2.05 163.66 C45.23 113.13, 91.19 60.67, 137.98 8.19 M4.1 170.55 C39.5 125.56, 77.8 83, 144.8 7.42 M2.21 169.11 C35.84 133.79, 67.46 96.66, 143.7 7.85 M2.79 174.49 C55.5 113.44, 107.64 53.46, 149.51 7.53 M2.84 175.77 C60.06 111.17, 114.61 47.93, 149.84 5.17 M5.51 180.32 C57.08 118.8, 111.53 57.27, 155.5 3.14 M4.08 180.3 C57.68 120.2, 111.94 58.41, 156.17 5.59 M5.38 184.47 C59.27 121.6, 115.18 56.62, 164.36 1.11 M5.7 184.24 C54.09 126.45, 104.57 69.17, 164 1.96 M6.09 189.69 C38.99 149.15, 74.79 109.02, 168.61 3.29 M5.81 190.24 C51.81 140.05, 96.58 89.16, 169.56 1.36 M5.8 196.02 C40.82 156.34, 74.98 116.64, 174.71 2 M7.16 195.9 C72.61 121.68, 136.24 48.14, 175.01 2.78 M7.03 200.94 C56.66 147.25, 103.15 93.06, 180.14 2.35 M8.28 200.4 C44.32 159.01, 81.26 115.83, 179.18 2.92 M8.44 206.25 C62.28 144.89, 112.34 85.57, 183.98 1.35 M8.82 205.7 C53.16 152.62, 97.87 100.64, 184.2 2.87 M9.2 213.27 C44.58 169.4, 79.66 125.77, 189.46 3.48 M8.49 211.86 C78.43 130.29, 148.79 50.11, 189.01 3.56 M10.92 215.81 C73.69 142.35, 139.52 67.35, 195.7 2.81 M10.95 215.4 C77.38 138.11, 145.55 60.76, 194.96 2.2 M11.09 220.64 C62.18 159.85, 114.72 100.57, 200.47 2.01 M12.22 219.1 C70.68 153.23, 129.06 85.96, 200.9 2.53 M13.27 222.07 C72.67 158.63, 127.2 92.74, 204.56 3.18 M14.38 222.58 C90.49 137.05, 164.06 51.52, 205.82 2.85 M17.4 227.12 C61.85 176.02, 104.39 124.06, 211.11 5.13 M17 226.31 C73.24 161.95, 129.65 96.26, 210.05 3.15 M17.94 229.46 C96.5 138.17, 176.96 50.01, 215.53 3.69 M18.45 230.37 C85.11 151.94, 153.8 72.63, 215.21 3.82 M21.11 232.72 C95.49 149.22, 171.7 63.15, 218.46 5.39 M21 233.91 C88.03 155.83, 157.88 75.41, 219.58 5.28 M21.66 238.2 C95.62 153.8, 167.77 72.81, 222.9 7.4 M22.63 238.5 C87.09 164.56, 148.8 92.3, 223.88 5.77 M26.12 240.66 C89.34 170.24, 152.38 97.36, 227.01 8.47 M25.31 240.86 C84.42 174.63, 142.02 108.05, 227.3 8.46 M27 245.36 C105.9 155.59, 184.16 65.81, 231.27 8.86 M26.94 244.91 C92.29 172.02, 155.74 98.48, 231.27 9.84 M28.35 250.14 C72.07 201.7, 116.05 150.22, 235.1 10.75 M29.12 249.67 C74.71 197.39, 119.54 145.84, 235.01 11.09 M32.32 252.1 C97.82 174.6, 168.16 94.03, 239.71 11.07 M31.4 252.3 C75.33 203.03, 119.25 153.35, 239.5 12.22 M33.01 256.49 C98.14 180.13, 162.74 105.86, 244.8 13.42 M33.18 255.69 C85.13 197.5, 136.56 138.49, 243.03 14.82 M35.77 259.02 C114.35 169.75, 189.62 82.32, 248.67 15.17 M36.31 258.51 C85.61 205.83, 132.5 151.41, 247.98 14.86 M40.23 262.6 C90.74 201.96, 143.67 142.49, 250.45 16.6 M39.15 262.11 C119.03 168.98, 198.63 77.09, 252.18 16.7 M41.34 263.82 C102.36 196.26, 163.05 128.17, 255.81 19.17 M42.02 264.76 C89.83 209.12, 137.87 153.54, 255.66 18.88 M44.64 268.17 C109.19 193.75, 171.53 119.19, 259.63 20.76 M45.41 267.17 C88.62 214.67, 134.69 162.8, 258.98 19.74 M48.58 270.65 C92.11 218.75, 138.26 168.08, 262.96 22.22 M47.92 269.01 C98.26 212.97, 148.34 156.18, 264.42 21.3 M49.92 271.97 C128.9 184.02, 206.07 96.01, 266.03 23.39 M51.23 272.65 C107.75 210.01, 162.29 146.7, 266.76 24.52 M53.09 276.64 C118.23 203.26, 182.83 128.33, 270.56 24.65 M53.34 275.23 C116.43 199.74, 181.23 126, 270.21 25.45 M56.88 277.94 C135.42 186.8, 214.51 93.92, 274.32 29.84 M56.79 278.24 C101.17 224.82, 146.86 172.63, 273.78 28.47 M60.56 281.75 C109.48 223.91, 161.76 166.28, 277.55 30.27 M60.06 280.59 C113.89 221.18, 165.68 160.89, 277.26 30.24 M61.5 283.3 C118.53 216.79, 177.02 151.43, 279.53 32.72 M63.02 284.1 C120.8 214.8, 180.66 147.68, 280.89 33.41 M64.49 287.21 C133.41 210.37, 199.27 132.23, 284.28 35.9 M65.69 285.55 C135.52 204.53, 206.15 123.63, 283.87 35.42 M68.65 289.98 C122.91 227.66, 176.48 164.46, 286.26 36.71 M68.39 289.23 C121.82 229.43, 172.12 170.18, 286.75 38.13 M71.27 291.88 C151.5 201.31, 230.09 108.78, 289.06 40.15 M70.43 292.25 C149.99 203.94, 226.71 114.71, 290.63 40.1 M74.33 294.72 C142.32 218.58, 207.8 143.38, 294.32 42.73 M74.92 294.59 C117.88 244.35, 161.99 193.28, 293.29 42.43 M77.65 295.29 C132.82 232.33, 188.75 169.01, 297.58 44.5 M78.23 295.99 C161.13 197.99, 246.59 100.5, 296.84 44.53 M81.26 297.91 C144.53 225.68, 207.52 152.91, 300.09 46.65 M81.4 297.59 C140.08 231.26, 196.82 165.67, 300.87 46.46 M85.92 299.89 C161.04 210.11, 241.14 120.11, 304.04 48.28 M85.61 299.04 C134.43 240.76, 185.74 182.43, 302.75 48.49 M88.15 301.24 C140.71 244.67, 193.03 184.92, 306.05 51.47 M89.56 301.35 C135.71 248.76, 181.77 197.13, 307.7 51.36 M92.89 302.16 C156.33 229.06, 220.7 156.82, 310.76 53.25 M92.93 303.79 C166.52 217.57, 240.97 133.07, 309.46 53.79 M97.74 304.6 C151.03 241.44, 207.09 177.26, 312.01 57.39 M96.54 305.43 C146.74 247.68, 197.17 188.07, 311.18 58.14 M100.08 307.09 C185.67 206.52, 271.93 108.89, 313.22 62.2 M100.38 307.49 C167.61 228.03, 235.49 150.28, 314.18 60.88 M103.17 308.93 C156.15 249.42, 208.72 189.42, 316.95 64.55 M103.73 309.41 C152.9 251.78, 202.77 194.9, 315.92 64.3 M106.95 310.5 C155.79 254.81, 205.8 199.18, 320.48 66.35 M107.31 311.15 C153.07 257.83, 199.06 205.79, 318.96 66.46 M111.28 312.07 C188.88 224.29, 266 134.62, 323.28 69.45 M110.66 312.1 C171.88 243.36, 231.59 174.47, 322.35 70.56 M115.66 313.28 C175.27 246.01, 235.39 177.74, 323.12 72.74 M116.34 313.97 C162.16 258.72, 209.04 205.19, 324.14 73.79 M120.57 314.2 C192.59 232.03, 264.74 148.39, 326.55 78.18 M119.73 315.01 C198.31 225.14, 277.13 134.95, 326.65 76.77 M126.33 315.35 C184 247.94, 241.85 183.82, 331.05 79.61 M125.04 314.8 C166.17 265.94, 208.85 218.75, 329.4 79.6 M130.3 317.48 C175.51 262.78, 220.37 210.97, 332.63 82.97 M129.51 317.02 C190.1 244.93, 252.11 174.08, 331.62 82.9 M132.74 317.17 C183.77 258.76, 235.7 200.61, 333.18 86.43 M133.78 317.25 C203.16 235.7, 273.38 156.57, 334.8 86.44 M138.25 316.55 C215.2 229.22, 295.16 139.26, 337 89.28 M138.68 318.38 C204.48 240.51, 269.91 164.26, 336.63 90.2 M144.21 320.12 C198.9 254.73, 255.09 189.28, 341.02 92.12 M142.54 319.43 C201.84 251.91, 260.27 183.91, 339.61 93.14 M148.64 319.36 C207.95 252.4, 267.94 182.77, 342.07 97.99 M147.49 319.23 C216.06 238.02, 285.85 158.47, 341.41 96.49 M152.86 319.48 C220.76 239.91, 289.94 162.42, 343.37 101.31 M152.03 320.53 C201.73 265.22, 248.49 210, 343.74 101.61 M158.43 320.5 C195.99 275.42, 237.33 227.52, 345.46 105.99 M157.93 321.27 C223.21 243.48, 289.8 167.05, 343.55 105.17 M160.83 323.47 C218.85 255.23, 277.83 190.02, 344.47 110.81 M161.26 321.54 C207.33 271.17, 252.3 218.98, 346.06 109.85 M166.74 323.75 C211.55 268.17, 260.75 215.76, 348.53 114.08 M166.26 323.18 C221.04 258.56, 277.43 195.47, 348.15 114.81 M168.34 324.22 C218.66 266.48, 269.92 208.52, 349.72 119.23 M169.22 325.41 C220.02 267.86, 269.24 211.16, 347.93 119.71 M176.18 325.81 C230.68 261.75, 290.32 194.24, 349.42 123.64 M175.43 324.37 C225.27 267.28, 274.33 210.74, 350.83 123.49 M182.37 324.2 C225.04 273.99, 268.28 225.96, 352.12 127.96 M181.44 324.83 C245.69 248.49, 310.89 175.96, 351.75 127.67 M186.25 322.84 C250.11 247.13, 318.31 172.52, 354.39 130.2 M186.31 323.48 C246.79 253.84, 307.26 183.48, 354.25 131.22 M191.67 323.03 C242.99 263.08, 295.72 201.87, 352.74 136.3 M192.23 323.37 C248.37 260.99, 302.18 197.3, 354.46 136.23 M197.92 322.4 C229.75 281.26, 265.81 243.86, 352.54 143.78 M198.31 322.97 C246.74 265.05, 296.91 208.07, 353.24 143.75 M205.04 321.61 C237.02 285, 270.52 244.56, 353.64 148.83 M202.9 322.07 C262.49 254.99, 321.65 187.27, 352.86 149.64 M207.56 323.2 C244.03 283.86, 277.26 244.56, 355.65 156.89 M208.94 322.16 C258.42 266.72, 304.65 212.23, 354.67 155.67 M213.98 321.43 C243.31 285.99, 276.9 250.65, 353.08 163.09 M214.74 322.51 C260.18 268.85, 305.7 216.06, 353.64 162 M220.63 320.8 C253.71 283.23, 283.66 248.9, 352.12 168.35 M221.59 321.3 C255.59 280.99, 289.49 241.99, 353.72 168.97 M226.71 320 C276.26 263.48, 325 208.03, 355.77 173.59 M228.9 317.52 C276.51 264.74, 322.75 210.26, 353.85 174.38 M238.59 314.14 C273.41 269.14, 313.21 226.26, 351.96 178.48 M236.42 315 C280.29 265.43, 323.36 215.9, 354.15 180.32 M244.96 310.85 C280.41 273.43, 316.15 231.3, 353.92 186.06 M244.66 311.24 C277.64 273.22, 312.84 232.44, 355.01 184.99 M252.29 309.43 C284.22 268.83, 319.04 227.45, 351.77 196.17 M251.38 308.45 C278.73 280.61, 302.47 251.55, 350.31 194.7 M261.45 307.48 C285.24 276.92, 308.96 249.34, 348.76 206.19 M260.81 305.27 C294.27 268.87, 325.49 229.96, 347.37 204.71 M267.15 300.72 C289.95 280.97, 308.07 257.77, 343.53 217.18 M268.52 302.57 C287.82 279.93, 307.2 257.97, 343.59 216.38 M285.77 292.7 C296.87 275.46, 309.42 261.49, 340.03 226.66 M283.76 290.28 C303.59 268.66, 322.42 246.11, 339.94 226.03 M297.77 278.8 C313.49 263.6, 325.64 246.53, 342.2 232.43 M299.28 279.36 C309.33 267.82, 318.42 256.33, 340 231.71" stroke="#40c057" stroke-width="0.5" fill="none"></path><path d="M109.78 11.04 C124.24 3, 145.48 2.16, 163.04 0.79 C180.59 -0.57, 198.3 -0.58, 215.09 2.87 C231.89 6.31, 248.56 13.46, 263.78 21.48 C279.01 29.5, 294.26 39.57, 306.45 50.98 C318.64 62.4, 329.11 75.73, 336.91 89.98 C344.71 104.23, 350.64 120.77, 353.27 136.48 C355.91 152.18, 355.41 168.63, 352.74 184.22 C350.07 199.81, 344.71 215.7, 337.26 229.99 C329.81 244.29, 319.75 258.13, 308.03 269.98 C296.32 281.83, 281.82 292.87, 266.97 301.08 C252.13 309.29, 235.62 315.65, 218.98 319.23 C202.34 322.81, 184.49 323.5, 167.14 322.56 C149.79 321.62, 131.23 318.98, 114.9 313.57 C98.56 308.15, 82.89 299.81, 69.13 290.07 C55.37 280.32, 42.57 268.16, 32.33 255.1 C22.09 242.05, 13.18 227.13, 7.7 211.73 C2.23 196.33, -0.61 178.8, -0.53 162.7 C-0.45 146.59, 3.23 130.22, 8.18 115.09 C13.13 99.96, 19.84 84.98, 29.18 71.91 C38.51 58.84, 49.29 47.32, 64.21 36.68 C79.13 26.05, 107.81 12.5, 118.7 8.12 C129.58 3.74, 128.39 7.81, 129.54 10.41 M109.36 12.66 C123.49 4.82, 143.02 2.06, 160.71 0.68 C178.41 -0.7, 198.07 1.26, 215.51 4.38 C232.94 7.49, 250.25 11.91, 265.33 19.35 C280.41 26.79, 294.15 37.15, 305.96 49.02 C317.78 60.88, 328.51 76.32, 336.22 90.54 C343.93 104.77, 349.58 118.91, 352.22 134.37 C354.87 149.84, 354.29 167.18, 352.1 183.35 C349.91 199.51, 346.44 216.83, 339.07 231.36 C331.7 245.89, 319.61 259.11, 307.89 270.53 C296.16 281.94, 283.64 292.05, 268.7 299.85 C253.76 307.66, 235.28 313.57, 218.25 317.35 C201.22 321.14, 183.93 323.54, 166.51 322.58 C149.1 321.61, 130.17 317.29, 113.77 311.55 C97.37 305.81, 81.82 297.44, 68.12 288.13 C54.42 278.81, 41.5 268.66, 31.57 255.67 C21.65 242.68, 13.63 225.33, 8.58 210.2 C3.53 195.07, 1.66 180.58, 1.25 164.88 C0.83 149.18, 1.22 131.24, 6.07 115.99 C10.92 100.74, 20.5 86.82, 30.34 73.38 C40.19 59.93, 51.71 45.37, 65.16 35.31 C78.6 25.24, 103.04 16.56, 111.03 12.98 C119.01 9.4, 111.8 11.51, 113.07 13.83" stroke="#000000" stroke-width="1" fill="none"></path></g><g stroke-linecap="round" transform="translate(208.39689189571084 12.3340810811261) rotate(0 177.39016216557678 161.63511486797614)"><path d="M40.71 57.92 C40.71 57.92, 40.71 57.92, 40.71 57.92 M40.71 57.92 C40.71 57.92, 40.71 57.92, 40.71 57.92 M25.02 83.32 C36.98 67.69, 47.83 57.34, 56.78 44.56 M25.17 81.7 C34.56 71.26, 44.24 59.14, 56.25 46.35 M15.42 101.65 C26.27 84.15, 42.34 68.57, 73.4 33.77 M13.76 99.73 C33.8 77.46, 53.76 55.66, 72.99 33.87 M10.66 111.38 C27.32 92.2, 39.19 77.1, 81.98 27.12 M10.75 110.17 C40.66 76.63, 68.13 45.96, 82.71 28.62 M10.38 118.26 C37.69 84.5, 70.91 48.48, 91.97 25.08 M8.16 119.36 C27.14 98.96, 44.12 78.85, 91.53 24.85 M7.5 129.31 C38.4 93.82, 69.71 55.99, 100.44 19.78 M5.36 128.42 C40.33 88.77, 75.53 47.13, 98.54 20.32 M2.96 138.24 C26.94 108.56, 54.64 81.47, 108.04 17.58 M2.44 137.75 C32.13 103.81, 62.8 71.29, 107.28 16.86 M-0.87 146.96 C28.57 109.92, 58.56 76.69, 116.39 12.9 M0.93 146.5 C44.17 96.45, 86.42 47.49, 115.53 13.2 M3.12 153.15 C35.78 112.26, 72.59 73.5, 124.72 9.97 M1.69 151.26 C39.3 109.94, 76.62 66.32, 125.46 10.83 M1.56 159.37 C49.04 104.53, 94.08 50.07, 133.24 6.95 M1.11 157.11 C44.86 109.15, 88.52 60.46, 131.45 7.07 M2.47 164.89 C46.86 112.65, 88.08 61.36, 136.65 5.68 M1.56 162.82 C33.8 126.18, 67.5 88.84, 137.03 6.74 M1.7 168.08 C51.96 111.52, 103.59 52.3, 142.88 5.76 M2.63 169.67 C37.65 126.93, 73.74 84.45, 144.15 5.97 M4.29 175.96 C55 111.71, 110.83 50.92, 150.34 5.65 M2.93 174.15 C43.1 126.39, 82.22 79.63, 150.32 6.01 M3.84 179.04 C49.04 126.46, 94.06 72.88, 157.71 5.71 M3.48 180.2 C60.58 111.36, 119.99 44.53, 155.87 4.81 M2.32 186.05 C64.09 116.17, 124.45 49.7, 162.66 2.54 M3.49 186.46 C57.24 124.02, 111.98 61.89, 162.15 3.46 M3.42 191.63 C70.09 117.29, 131.51 43.71, 169.18 3.34 M3.92 191.95 C42.79 146.32, 81.84 100.63, 167.62 2.82 M6.87 194.76 C63.44 132.62, 118.11 66.87, 172.94 3.77 M7.06 194.8 C45.91 149.25, 84.05 106.18, 172.86 3.2 M8.57 198.88 C62.74 139.56, 113.36 76.07, 178.6 2.3 M7.8 199.16 C66.42 131.29, 127.61 61.63, 180.01 1.24 M9.97 203.27 C69.54 134.61, 128.17 67.44, 184.6 2.15 M8.42 204.18 C58.45 150.58, 105.1 96.72, 185.47 1.74 M10.69 207.65 C64.96 144.51, 122.17 83.79, 188.94 0.77 M10.65 208.59 C70.02 141.55, 128.5 75.66, 190.68 1.51 M13.82 211.79 C73.59 143.86, 133.74 75, 193.84 3.99 M12.04 212.82 C57.35 159.92, 101.8 109.44, 193.73 3.68 M13.47 215 C72.72 146.65, 131.45 78.13, 199.2 3.06 M14.84 216.77 C87.97 132.16, 159.48 49.42, 198.89 3.24 M15.34 219.35 C87.39 139.98, 155.8 62.4, 204.85 3.48 M16.04 220.92 C69.82 157.08, 122.7 95.59, 202.82 5.03 M18.77 225.35 C67.65 165.1, 119.33 107.04, 207.96 4.43 M18.24 225 C65.89 167.25, 115.65 109.61, 207.79 5.6 M18.95 229.21 C82.34 152.96, 145.72 80.75, 213.74 5.92 M19.85 229.07 C92.02 146.4, 164.24 62.27, 212.21 6.43 M22.4 233.63 C85.24 160.96, 146.57 89.67, 217.39 8.25 M21.28 232.25 C71.23 176.37, 120.4 117.45, 217.06 6.66 M20.84 237.54 C69.12 183.75, 117.7 131.15, 221.25 8.57 M21.46 238.21 C68.65 183.8, 116.05 127.95, 221.61 6.99 M24.15 242.77 C74.41 182.31, 124.58 122.54, 225.46 10.01 M23.89 242.66 C101.32 151.39, 180.05 61.9, 226.48 9.29 M26.19 245.24 C91.28 170.37, 156.37 92.83, 230.89 8.59 M26.16 245.79 C78.66 186.29, 130.19 126.63, 231.63 9.45 M30.53 247.85 C91.26 176.12, 153.56 105.13, 236.48 10.19 M29.4 247.77 C83.41 182.68, 140.44 117.39, 236.98 9.39 M30.67 251.57 C104.6 166.79, 177.47 82, 241.06 10.75 M31.65 252.02 C101.56 169.58, 171.9 88.4, 239.57 11.48 M34.25 255.43 C94.26 189.37, 152.77 121.56, 242.89 12.62 M33.34 255.34 C78.8 201.99, 124.34 150.18, 243.28 12.83 M37.6 256.24 C104.93 178.8, 172.85 101.08, 247.41 13.72 M37.5 256.78 C94.05 191.56, 150.53 125.18, 247.91 15.79 M38.35 260.79 C100.39 191.44, 160.29 123.7, 250.83 17.49 M39.54 260.05 C109.35 181.52, 180.63 99.89, 251.44 17.5 M41.82 264.1 C115.85 178.62, 190.47 92.22, 254.59 17.8 M42.4 263.67 C122.36 171.83, 202.55 78.52, 254.22 18.59 M45.16 265.4 C129.08 171.31, 210.46 75.84, 259.53 20.62 M44.45 267.2 C93.41 211.15, 141.94 155.5, 259.1 20.46 M46.58 271.36 C127.06 179.24, 208.91 84.83, 263.72 20.94 M47.66 269.73 C94.73 213.3, 143.17 157.59, 263.29 21.7 M49.38 272.36 C122.85 191.19, 193.87 109.51, 265.57 23.31 M50.24 272.29 C114.85 196.34, 181.68 119.49, 265.96 24.13 M53.53 275.22 C112.44 204.89, 173.67 136.66, 269.82 24.43 M52.3 275.61 C123.68 193.33, 195.51 112.11, 269.8 25.04 M55.33 277.57 C105.64 221.38, 155.83 162.35, 273.66 26.31 M55.11 279.12 C116.28 206.73, 178.18 134.89, 274.19 26.96 M58.27 281.51 C133.12 191.96, 212.11 103.51, 278.09 29.68 M58.63 281.74 C115.51 217.4, 171.2 153.15, 278.15 29.67 M63.12 283.32 C128.46 209.67, 192.35 134.17, 282.3 30.7 M62.19 283.77 C116.77 219.03, 172.38 155.48, 281.7 30.43 M64.51 284.78 C114.3 229.25, 163.79 173.02, 286.21 31.77 M65.38 285.39 C136.07 205.18, 207.02 122.79, 285.43 33.33 M68.89 287.81 C136.54 211.63, 201.5 135.97, 287.41 34.92 M69.44 288.08 C116.96 232.97, 164.63 178.13, 287.72 35.36 M71.27 289.74 C148.8 205.09, 223.11 117.9, 290.54 37.81 M71.89 289.22 C138.79 217.12, 202.85 142.36, 291.03 38.64 M76.14 292.07 C141.04 217.48, 203.67 142.4, 294.21 40.61 M76.27 290.92 C160.21 197.41, 242.92 101.37, 294.57 40.35 M79.52 293.03 C140.54 220.11, 205.01 150.58, 296.83 44.81 M78.61 294.58 C140.81 222.46, 203.69 151.79, 297.1 43.84 M82.3 295 C150.03 218.92, 217.14 140.22, 301.2 45.28 M83.05 296.15 C136.11 234.99, 188.08 173.9, 300.4 45.92 M84.75 299.19 C141.73 231.1, 199.31 165.4, 303.42 48.97 M85.84 299.12 C140.8 236.66, 194.04 173.45, 301.98 50.11 M89.5 301.1 C142.7 238.16, 196.28 177.75, 305.51 52.99 M90.23 300.57 C154.7 227.08, 217.93 152.66, 305.26 52.28 M93.33 301.5 C139.52 252.53, 183 200.88, 309.22 53.45 M93.05 302.8 C158.73 226.63, 222.75 152.29, 308.91 54.97 M95.06 305.76 C181.62 204.93, 267.08 107.46, 312.33 56.32 M96.44 304.46 C171.18 220.22, 244.46 136.37, 311.68 57.05 M99.39 308.12 C156.25 240.89, 212.3 175.42, 313.87 60.66 M99.6 307.48 C185.21 209.12, 269.23 110.35, 314.53 60.26 M102.43 308.73 C172.04 233.47, 236.66 156.94, 318.77 61.45 M103.19 308.03 C182.11 217.29, 260.35 126.08, 317.35 63.19 M107.85 310.13 C175.3 230.2, 245.48 150.11, 321.79 65.04 M107.96 310.23 C159.57 250.61, 209.7 193.21, 320.44 65.7 M110.91 310.83 C181.5 234.93, 247.82 157.66, 322.5 68.05 M112.17 311.48 C171.22 245.85, 229.23 179.42, 323.23 69.17 M116.17 311.56 C178.91 237.18, 243.88 163.6, 324.36 74.03 M117.18 312.14 C195.57 220.53, 275.55 127.64, 324.37 72.53 M119.96 312.81 C168.69 256.09, 221.44 198.32, 326.08 76.19 M120.6 314.56 C191.52 231.39, 264.56 148.91, 327.34 76.55 M123.2 314.88 C173.32 259.27, 222.58 203.84, 330.03 79.67 M124 315.4 C195.45 234.76, 264.91 154.41, 328.87 79.5 M128.05 315.53 C181.7 253.52, 238.67 188.92, 331.99 82.56 M129.1 315.98 C205.35 229.83, 282.08 141.86, 331.61 84.27 M133.97 318.55 C211.2 225.22, 286.67 137.27, 332.02 86.65 M132.61 317.44 C181.44 260.21, 232.42 202.8, 333.42 86.37 M136.69 319.76 C188.46 259.48, 239.9 199.9, 335.56 90.74 M136.56 319.62 C206.71 240.11, 276.61 159.01, 335.69 90.97 M141.58 321.48 C210.37 243.9, 278.12 164.71, 339.09 94.98 M141.62 320.42 C185.69 271.38, 228.61 221.03, 337.46 94.17 M146.34 320.61 C193.74 263.28, 244.23 209.05, 339.43 96.83 M146.84 321.3 C214.09 241.42, 284.57 161.61, 339.27 98.6 M153.03 319.02 C215.56 250.67, 276.73 178.07, 342.85 101.48 M151.79 320.92 C227.51 232.65, 302.04 147.05, 341.58 101.87 M155.39 320.98 C226.3 241.12, 295.57 163.19, 345.36 106.04 M156.89 321.24 C211.42 260.69, 263.67 199.73, 344.55 105 M162.16 320.52 C211.87 263.95, 263.35 205.39, 347.69 106.86 M161.57 320.38 C211.63 263.79, 261.81 207.3, 346.34 108.26 M167.83 321.25 C221.73 256.47, 277.13 190.54, 349.48 114.42 M166.26 321.9 C223.18 257.34, 278.64 194.29, 348.03 112.85 M170.35 320.72 C234.89 248.3, 300.09 175.21, 350.53 116.92 M172.49 321.37 C242.77 241.14, 311.66 161.75, 348.58 118.23 M178.12 321.4 C219.91 274.57, 259.14 228.12, 348.95 121.92 M176.71 321.94 C212.11 280.44, 249.76 237.87, 349.42 123 M180.78 321.58 C228.65 267.43, 277.71 210.25, 352.56 128.91 M182.15 323.11 C226.09 272.81, 269.76 223.32, 351.31 128.35 M187.55 323.5 C234.98 264.84, 285.07 207.19, 352.46 132.29 M186.38 322.34 C233.19 268.53, 278.48 216.07, 351.98 132.83 M191.19 324 C248.37 255.55, 308.9 189.5, 352.17 136.14 M191.79 322.67 C223.06 287.14, 255.73 249.29, 352.68 137.34 M198.18 321.99 C248.9 263.6, 301.13 205.52, 353.96 141.75 M196.64 322.57 C257.6 254, 317.4 186.12, 354.33 141.5 M200.9 323.46 C239.98 281.06, 277.83 236.35, 356.02 146.04 M201.97 324.74 C252.04 267.04, 301.26 210.13, 355.96 147.15 M209.17 323.94 C253.7 271.74, 299.19 218.32, 355.91 154 M207.83 321.9 C252.13 272.26, 298.29 219.85, 353.61 155.09 M216.01 320.65 C247.14 282.27, 277.38 247.79, 354.3 159.77 M214.69 320.24 C263 264.89, 312.14 208.73, 353.89 161.09 M223.58 318.01 C266.62 265.81, 310.71 214.09, 352.33 166.8 M221.92 319.34 C251.81 283.68, 282.56 249.72, 352.81 168.66 M228.26 318.3 C262.64 275.18, 300.94 233.98, 351.79 175.82 M228.72 316.88 C274.75 262.46, 322.4 208.77, 352.7 174.91 M235.29 316.36 C264.74 279.09, 297.11 246.13, 352.74 183.13 M235.62 315.11 C259.29 288.84, 283.76 259.49, 351.04 180.94 M241.43 312.17 C269 280.37, 298.6 248.22, 350.56 188.22 M242.39 313.97 C280.48 270.45, 318.37 225.98, 351.39 188.85 M250.89 310.17 C267.91 289.51, 290.19 263.15, 349.92 196.64 M248.2 311.59 C282.9 271.89, 317.83 234.17, 351.58 194.78 M254.89 310.72 C285 275.68, 314.41 241.54, 350.6 200.17 M253.48 312.98 C284.2 276.62, 316.66 239.31, 350.97 201.28 M264.13 306.82 C286.49 278.38, 309.71 253.3, 343.72 213.14 M265.84 304.74 C293.8 271.84, 322.53 240.02, 345.19 214.76 M277.27 298.62 C289.18 282.32, 304.37 266.92, 336.71 227.4 M277.03 298.61 C291.13 280.01, 307.11 262.42, 338.6 228.38 M296.42 284.25 C302.97 271.67, 314.41 259.11, 333.68 241.77 M293.89 284.37 C305.29 271.34, 315.08 260.91, 333.05 240.59" stroke="#228be6" stroke-width="0.5" fill="none"></path><path d="M234.59 8.25 C251.43 10.43, 267.78 20.84, 281.71 30.05 C295.65 39.25, 307.77 50.78, 318.2 63.48 C328.62 76.19, 338.23 91.23, 344.26 106.29 C350.29 121.35, 353.42 137.98, 354.4 153.86 C355.38 169.74, 354.26 186.19, 350.13 201.56 C346 216.93, 338.94 232.38, 329.61 246.07 C320.27 259.76, 307.14 273.09, 294.1 283.71 C281.06 294.34, 267.07 303.28, 251.38 309.81 C235.69 316.35, 217.47 321.22, 199.96 322.92 C182.44 324.62, 163.47 323.07, 146.29 320 C129.11 316.94, 112.37 311.62, 96.9 304.51 C81.43 297.4, 66.11 288.32, 53.47 277.35 C40.82 266.38, 29.42 252.79, 21.02 238.7 C12.62 224.61, 6.59 208.32, 3.07 192.8 C-0.45 177.28, -1.92 161.16, -0.09 145.58 C1.73 129.99, 7.24 113.87, 14.02 99.29 C20.79 84.72, 29.39 70.21, 40.55 58.11 C51.71 46, 66.1 35.39, 80.99 26.68 C95.87 17.96, 112.92 10.4, 129.86 5.82 C146.81 1.25, 163.81 -1.8, 182.64 -0.78 C201.46 0.25, 231.84 9.07, 242.83 11.97 C253.81 14.88, 249.74 14.18, 248.55 16.65 M110.66 12.07 C125.2 4.31, 145.78 2.54, 163.48 1.12 C181.19 -0.29, 200.2 0.41, 216.9 3.58 C233.59 6.76, 248.92 12.38, 263.66 20.18 C278.39 27.97, 293.25 38.68, 305.31 50.37 C317.38 62.05, 328.28 76.14, 336.05 90.28 C343.83 104.42, 349.18 119.63, 351.96 135.23 C354.74 150.82, 354.93 167.76, 352.73 183.83 C350.52 199.9, 345.94 217.4, 338.73 231.67 C331.53 245.94, 321.53 257.95, 309.48 269.46 C297.44 280.97, 281.82 292.49, 266.47 300.73 C251.11 308.97, 233.99 315.38, 217.36 318.91 C200.72 322.44, 183.92 322.88, 166.65 321.88 C149.38 320.88, 130.27 318.57, 113.73 312.92 C97.19 307.28, 81.04 297.74, 67.41 288.01 C53.78 278.29, 41.57 267.65, 31.96 254.58 C22.34 241.51, 15.16 224.68, 9.71 209.59 C4.26 194.51, -0.32 179.82, -0.76 164.07 C-1.2 148.31, 1.77 130.23, 7.1 115.06 C12.43 99.88, 21.25 86.07, 31.22 73.03 C41.2 60, 53.55 46.99, 66.95 36.85 C80.35 26.7, 104.16 15.7, 111.63 12.15 C119.11 8.59, 110.74 12.97, 111.77 15.53" stroke="#000000" stroke-width="1" fill="none"></path></g><g stroke-linecap="round" transform="translate(28.82396466531395 377.8931306846971) rotate(0 11.493788371422909 10.971343445449122)"><path d="M0 0 C0 0, 0 0, 0 0 M0 0 C0 0, 0 0, 0 0 M-0.34 5.72 C1.17 4.08, 2.92 2.5, 5.01 0.36 M-0.13 6.18 C2.21 4.33, 3.75 1.49, 5.12 0.24 M-0.93 10.49 C3.65 9.79, 3.83 5.52, 11.97 0.19 M-0.55 12.66 C3.5 7.28, 7.53 4.02, 10.3 0.42 M-1.48 17.08 C5.84 13.96, 10 6.45, 16.25 1.7 M-0.74 19.22 C5.31 12.78, 10.42 6.9, 15.31 0.99 M0.6 22.16 C5.43 17.96, 11.12 12.91, 19.78 -1.21 M1.4 23.28 C5.55 17.87, 9.46 14.43, 21.82 -0.07 M6.62 21.68 C12.47 15.06, 17.89 11.05, 26.43 0.29 M7.42 22.08 C12.03 16.13, 16.62 10.02, 25.46 1.85 M10.69 23.49 C14.94 19.74, 17.24 13.38, 25.65 6.66 M10.67 24.24 C15.45 19.44, 18 16.44, 25.18 8.28 M16.03 23.45 C18.41 20.24, 21.94 16.97, 25.25 14.91 M17.32 22.88 C20.46 19.84, 22.79 16.3, 24.57 14.16" stroke="#40c057" stroke-width="0.5" fill="none"></path><path d="M0.2 1.23 C7.31 -0.65, 16.32 -0.62, 23.52 1.1 M-0.76 -0.54 C7.03 -0.2, 15.18 0.02, 22.58 -0.66 M24.48 1.41 C21.41 4.97, 22.63 11.07, 22.98 23.33 M22.63 -0.55 C23.15 5.6, 23.88 9.5, 22.48 22.67 M24.77 23.69 C17.62 22.7, 10.92 21.12, 1.14 21.96 M22.12 22.26 C15.65 22.83, 7.53 22.62, -0.47 21.27 M-0.55 22.92 C0.4 18.47, -1.9 12.05, -0.92 -1.54 M0.4 21.77 C0.7 15.69, -0.58 9.08, 0.86 -0.04" stroke="#000000" stroke-width="1" fill="none"></path></g><g stroke-linecap="round" transform="translate(28.82396466531395 426.48050880025744) rotate(0 11.493788371422909 10.971343445449122)"><path d="M0 0 C0 0, 0 0, 0 0 M0 0 C0 0, 0 0, 0 0 M-0.54 6 C1.24 4.63, 1.9 4.17, 4.75 -0.17 M-0.64 6.29 C1.1 5.2, 2.06 4.21, 5.32 0.02 M0.14 13.4 C3.48 8.44, 8.46 1.65, 10.98 -1.12 M0.07 11.93 C2.78 9.71, 5.13 6.66, 9.9 -0.52 M0.9 18.33 C5.12 12.93, 10.24 6.28, 16.98 0 M0.43 18.63 C2.93 13.49, 6.57 9.04, 15.33 0.81 M0.65 25.04 C7.99 16.55, 13.4 9.21, 20.67 -0.02 M0.57 24.25 C6.52 17.12, 10.4 11.94, 22.15 0.78 M5.92 21.12 C11.52 18.61, 13.67 15.5, 25.44 0.94 M6.02 21.96 C12.74 15.58, 17.5 9.64, 25.41 0.92 M10.97 25.16 C17.67 17.48, 21.56 11.51, 24.31 6.25 M11.75 22.67 C16.37 18.97, 21.36 13.37, 24.03 8.41 M17.15 22.64 C18.46 20.83, 21.42 17.82, 24.53 12.85 M16.81 23.47 C19.04 20.21, 20.87 18.51, 24.94 14.19" stroke="#228be6" stroke-width="0.5" fill="none"></path><path d="M-0.69 -0.02 C4.84 -1.26, 10.93 -0.7, 24.17 1.49 M-0.14 -0.63 C8.52 0.83, 16.35 -0.01, 23.21 -0.36 M24.84 -1.29 C22.01 6.82, 22.56 10.44, 24.62 23.72 M23.31 -0.51 C23.67 8.51, 23.63 17.37, 23.1 21.08 M24.6 23.25 C14.43 20.79, 6.14 21.71, -0.23 21.4 M22.01 21.82 C14.51 21.33, 6.87 22.68, -0.2 22.35 M-0.9 21.8 C1.54 15.66, -1.07 9.76, -0.11 -0.18 M0.85 21.17 C0.01 15.17, 0.9 8.84, 0.2 0.36" stroke="#000000" stroke-width="1" fill="none"></path></g><g transform="translate(71.66444859516287 379.3420292041725) rotate(0 137.5 12.5)"><text x="0" y="18" font-family="Virgil, Segoe UI Emoji" font-size="20px" fill="#2b8a3e" text-anchor="start" style="white-space: pre;" direction="ltr">Informações em CompileTime</text></g><g transform="translate(79.08228897175286 424.95185224570685) rotate(0 121 12.5)"><text x="0" y="18" font-family="Virgil, Segoe UI Emoji" font-size="20px" fill="#1864ab" text-anchor="start" style="white-space: pre;" direction="ltr">Informações em RunTime</text></g></svg>